{
	"asset":{
		"generator":"Khronos glTF Blender I/O v3.6.27",
		"version":"2.0"
	},
	"scene":0,
	"scenes":[
		{
			"name":"Scene",
			"nodes":[
				0,
				1
			]
		}
	],
	"nodes":[
		{
			"mesh":0,
			"name":"Plane"
		},
		{
			"mesh":1,
			"name":"Cube",
			"scale":[
				0.2373754382133484,
				0.2373754382133484,
				0.2373754382133484
			]
		}
	],
	"meshes":[
		{
			"name":"Plane",
			"primitives":[
				{
					"attributes":{
						"POSITION":0,
						"NORMAL":1,
						"TEXCOORD_0":2
					},
					"indices":3
				}
			]
		},
		{
			"name":"Cube",
			"primitives":[
				{
					"attributes":{
						"POSITION":4,
						"NORMAL":5,
						"TEXCOORD_0":6
					},
					"indices":7
				}
			]
		}
	],
	"accessors":[
		{
			"bufferView":0,
			"componentType":5126,
			"count":8,
			"max":[
				1,
				2,
				1
			],
			"min":[
				-1,
				0,
				-1
			],
			"type":"VEC3"
		},
		{
			"bufferView":1,
			"componentType":5126,
			"count":8,
			"type":"VEC3"
		},
		{
			"bufferView":2,
			"componentType":5126,
			"count":8,
			"type":"VEC2"
		},
		{
			"bufferView":3,
			"componentType":5123,
			"count":12,
			"type":"SCALAR"
		},
		{
			"bufferView":4,
			"componentType":5126,
			"count":24,
			"max":[
				1,
				1,
				1
			],
			"min":[
				-1,
				-1,
				-1
			],
			"type":"VEC3"
		},
		{
			"bufferView":5,
			"componentType":5126,
			"count":24,
			"type":"VEC3"
		},
		{
			"bufferView":6,
			"componentType":5126,
			"count":24,
			"type":"VEC2"
		},
		{
			"bufferView":7,
			"componentType":5123,
			"count":36,
			"type":"SCALAR"
		}
	],
	"bufferViews":[
		{
			"buffer":0,
			"byteLength":96,
			"byteOffset":0,
			"target":34962
		},
		{
			"buffer":0,
			"byteLength":96,
			"byteOffset":96,
			"target":34962
		},
		{
			"buffer":0,
			"byteLength":64,
			"byteOffset":192,
			"target":34962
		},
		{
			"buffer":0,
			"byteLength":24,
			"byteOffset":256,
			"target":34963
		},
		{
			"buffer":0,
			"byteLength":288,
			"byteOffset":280,
			"target":34962
		},
		{
			"buffer":0,
			"byteLength":288,
			"byteOffset":568,
			"target":34962
		},
		{
			"buffer":0,
			"byteLength":192,
			"byteOffset":856,
			"target":34962
		},
		{
			"buffer":0,
			"byteLength":72,
			"byteOffset":1048,
			"target":34963
		}
	],
	"buffers":[
		{
			"byteLength":1120,
			"uri":"data:application/octet-stream;base64,"
		}
	]
}
